<svg xmlns="http://www.w3.org/2000/svg" width="1200" height="390" viewBox="0 0 1200 390" role="img" aria-labelledby="title desc"><title id="title">Remotion Markup — схема работы</title><desc id="desc">Сборка сцен из React/HTML/SVG, эффектов, текста, переходов и звука.</desc><defs><marker id="arrow" markerWidth="8" markerHeight="8" refX="6" refY="3" orient="auto"><path d="M0,0 L0,6 L7,3 z" fill="#fb8f67"/></marker></defs><rect width="1200" height="390" rx="26" fill="#0b1020"/><rect x="26" y="26" width="1148" height="338" rx="22" fill="#101a2d" stroke="#243450"/><text x="54" y="76" class="tag">REMOTION</text><text x="54" y="124" class="title">Remotion Markup</text><text x="54" y="153" class="sub">Сборка сцен из React/HTML/SVG, эффектов, текста, переходов и звука.</text><g><rect x="44" y="178" width="330" height="142" rx="18" fill="#172238" stroke="#334563"/><circle cx="76" cy="210" r="17" fill="#fb8f67"/><text x="76" y="216" text-anchor="middle" class="num">1</text><text x="104" y="216" class="eyebrow">ШАГ 1</text><text x="68" y="260" class="node"><tspan x="68" dy="0">Разложить сцену на слои</tspan></text></g><path d="M 382 249 H 418" stroke="#fb8f67" stroke-width="3" marker-end="url(#arrow)"/><g><rect x="428" y="178" width="330" height="142" rx="18" fill="#172238" stroke="#334563"/><circle cx="460" cy="210" r="17" fill="#fb8f67"/><text x="460" y="216" text-anchor="middle" class="num">2</text><text x="488" y="216" class="eyebrow">ШАГ 2</text><text x="452" y="260" class="node"><tspan x="452" dy="0">Задать frame-based движение</tspan></text></g><path d="M 766 249 H 802" stroke="#fb8f67" stroke-width="3" marker-end="url(#arrow)"/><g><rect x="812" y="178" width="330" height="142" rx="18" fill="#172238" stroke="#334563"/><circle cx="844" cy="210" r="17" fill="#fb8f67"/><text x="844" y="216" text-anchor="middle" class="num">3</text><text x="872" y="216" class="eyebrow">ШАГ 3</text><text x="836" y="260" class="node"><tspan x="836" dy="0">Проверить кадры и звук</tspan></text></g><text x="54" y="345" class="foot">INPUT → PROCESS → RESULT</text><style>.tag{font:600 13px system-ui,sans-serif;letter-spacing:2px;fill:#fb8f67}.title{font:700 29px system-ui,sans-serif;fill:#f5f7fb}.sub{font:400 15px system-ui,sans-serif;fill:#aebbd0}.num{font:700 14px system-ui,sans-serif;fill:#101a2d}.eyebrow{font:600 12px system-ui,sans-serif;letter-spacing:1px;fill:#8fa1bb}.node{font:600 18px system-ui,sans-serif;fill:#f5f7fb}.foot{font:600 11px system-ui,sans-serif;letter-spacing:2px;fill:#687b98}</style></svg>